<?xml version="1.0" standalone="no"?>
<!DOCTYPE svg PUBLIC "-//W3C//DTD SVG 20010904//EN"
 "http://www.w3.org/TR/2001/REC-SVG-20010904/DTD/svg10.dtd">
<svg version="1.0" xmlns="http://www.w3.org/2000/svg"
 width="512.000000pt" height="512.000000pt" viewBox="0 0 512.000000 512.000000"
 preserveAspectRatio="xMidYMid meet">

<g transform="translate(0.000000,512.000000) scale(0.100000,-0.100000)"
fill="#000000" stroke="none">
<path d="M2025 4776 c-25 -25 -25 -25 -25 -216 0 -189 0 -191 25 -215 l24 -25
376 0 377 0 -4 -202 c-3 -197 -4 -204 -30 -254 -40 -76 -70 -107 -140 -145
-58 -31 -70 -34 -148 -33 -72 0 -93 4 -136 26 -75 39 -107 70 -143 139 -29 54
-34 73 -40 166 -6 94 -9 107 -30 124 -33 27 -77 24 -108 -7 -25 -25 -25 -28
-21 -132 6 -120 27 -188 83 -272 l34 -50 -27 -6 c-128 -29 -180 -54 -261 -129
-58 -55 -61 -56 -98 -47 -21 6 -50 13 -65 16 l-27 6 34 50 c18 27 44 76 57
107 22 56 23 67 23 359 l0 300 -37 76 c-45 91 -103 147 -196 191 l-67 32 -176
0 -175 0 -76 -37 c-91 -45 -147 -103 -191 -196 l-32 -67 0 -300 c0 -291 1
-302 23 -358 13 -31 39 -80 57 -107 l34 -50 -27 -5 c-199 -41 -339 -163 -392
-342 -7 -24 -14 -43 -14 -43 -1 0 -53 16 -116 35 -63 19 -125 35 -138 35 -33
0 -72 -43 -72 -78 0 -60 12 -65 405 -183 204 -61 372 -113 374 -115 2 -2 -28
-132 -68 -289 -39 -156 -71 -298 -71 -315 0 -75 110 -99 144 -31 7 14 35 115
62 224 57 231 28 211 223 153 68 -20 156 -41 195 -47 100 -16 261 -5 384 25
147 37 174 35 279 -20 129 -67 128 -63 42 -121 -105 -71 -209 -125 -321 -168
-151 -57 -202 -118 -203 -240 0 -111 54 -195 166 -255 52 -28 77 -34 141 -38
103 -6 139 7 333 118 l157 90 81 -25 c199 -63 411 -50 579 36 l39 20 117 -67
c132 -76 163 -82 199 -40 26 31 29 62 8 93 -22 31 -289 183 -322 183 -15 0
-44 -10 -63 -21 -58 -36 -152 -67 -237 -79 -97 -13 -195 -1 -297 36 -119 44
-104 47 -312 -71 -195 -112 -233 -125 -309 -111 -51 10 -125 82 -125 123 0 47
26 68 138 112 185 73 333 166 533 337 68 58 148 118 177 131 69 33 148 34 267
5 195 -46 387 -52 571 -17 45 8 200 49 343 90 144 41 268 75 275 75 18 0 269
-1000 252 -1005 -6 -2 -99 -15 -207 -30 l-197 -26 -124 70 c-136 78 -171 86
-206 48 -27 -28 -29 -80 -4 -104 9 -10 78 -53 153 -96 167 -95 184 -112 184
-179 0 -44 -4 -53 -37 -84 -67 -61 -64 -62 -503 192 -461 268 -465 270 -502
252 -16 -7 -34 -26 -42 -42 -29 -62 -16 -72 364 -291 255 -147 353 -208 367
-230 25 -39 19 -107 -12 -140 -28 -30 -82 -49 -112 -40 -13 4 -179 97 -369
206 -190 110 -356 199 -368 199 -28 0 -81 -51 -81 -78 0 -11 9 -31 20 -45 11
-13 151 -101 312 -193 161 -93 308 -183 326 -200 73 -72 17 -194 -90 -194 -25
0 -112 45 -346 180 -184 106 -322 180 -338 180 -37 0 -60 -15 -74 -49 -24 -59
-9 -72 295 -248 193 -112 285 -170 297 -190 49 -78 -8 -183 -99 -183 -16 0
-79 29 -146 66 -96 54 -118 70 -122 92 -10 47 -57 132 -88 158 -47 40 -105 65
-162 71 -53 6 -53 6 -59 45 -9 57 -39 109 -86 152 -51 46 -91 64 -164 72 -49
6 -56 9 -56 29 0 64 -52 148 -120 194 -67 45 -145 58 -222 37 -34 -9 -64 -13
-68 -9 -3 4 -19 25 -34 46 -81 110 -246 135 -371 56 l-47 -30 -194 77 c-107
42 -194 79 -194 83 0 3 21 92 47 198 l47 192 -20 28 c-16 21 -31 29 -60 31
-65 5 -73 -12 -143 -293 -34 -137 -66 -266 -71 -286 l-10 -36 -167 33 c-92 19
-175 34 -185 34 -29 0 -68 -45 -68 -78 0 -62 17 -70 255 -118 120 -24 227 -44
237 -44 33 0 64 42 78 108 7 34 18 62 24 62 14 0 319 -119 328 -128 4 -4 -13
-41 -37 -83 -52 -90 -70 -152 -62 -219 16 -131 117 -230 250 -246 55 -6 55 -7
61 -46 9 -57 38 -109 85 -151 74 -67 175 -91 266 -63 l50 16 20 -28 c78 -108
203 -155 317 -117 51 16 53 16 63 -2 5 -10 30 -38 55 -63 83 -83 208 -102 316
-47 57 29 90 63 129 130 l27 47 61 -36 c158 -91 224 -108 318 -81 106 31 187
129 196 237 5 57 7 60 32 60 38 0 122 42 160 81 45 44 81 123 81 176 0 38 3
43 28 49 61 13 92 26 131 54 46 34 97 116 106 172 7 38 7 38 54 38 85 0 148
26 207 84 75 75 101 171 73 269 -6 22 -9 40 -7 42 4 5 301 46 304 42 1 -1 11
-38 23 -82 20 -81 44 -115 80 -115 9 0 116 20 236 44 238 48 255 56 255 118 0
33 -39 78 -68 78 -10 0 -93 -15 -185 -34 l-167 -33 -10 36 c-29 112 -350 1402
-350 1409 0 5 168 59 373 120 394 119 407 125 407 184 0 35 -39 78 -71 78 -17
0 -422 -116 -506 -145 -8 -3 -24 18 -39 48 -58 113 -208 226 -323 243 -25 4
-49 8 -53 11 -4 2 8 26 27 54 45 66 74 145 81 228 6 65 5 71 -19 95 -33 33
-79 34 -111 3 -17 -17 -24 -39 -29 -86 -8 -73 -54 -168 -100 -207 -16 -14 -53
-37 -81 -52 -43 -22 -64 -26 -136 -26 -78 -1 -90 2 -148 33 -70 38 -100 69
-140 145 -25 49 -27 58 -30 237 l-4 185 40 26 c56 37 104 56 176 69 90 15 162
-1 340 -77 83 -35 161 -64 174 -64 13 0 35 12 49 26 25 25 25 29 21 117 -14
241 -159 391 -402 416 -66 7 -116 22 -271 85 -104 42 -199 76 -210 76 -11 0
-30 -6 -41 -14 -25 -18 -78 -130 -99 -211 -30 -117 -14 -282 38 -379 20 -37
23 -61 28 -251 6 -233 15 -272 84 -375 18 -27 30 -51 27 -54 -3 -3 -19 -6 -35
-6 -22 0 -43 12 -77 44 -67 62 -141 98 -252 121 l-27 5 34 50 c18 27 44 76 57
107 22 56 23 67 23 358 l0 300 -32 67 c-44 93 -100 151 -191 196 l-76 37 -303
3 -303 3 -25 -25z m609 -148 c45 -13 146 -105 146 -132 0 -14 -35 -16 -310
-16 l-310 0 0 80 0 80 216 0 c141 0 231 -4 258 -12z m1015 -147 c97 -10 138
-27 189 -75 33 -30 78 -104 69 -112 -2 -2 -49 14 -104 36 -140 56 -235 69
-351 46 -50 -10 -117 -32 -156 -51 -52 -26 -72 -32 -78 -22 -25 40 -22 216 5
279 l15 37 161 -65 c133 -53 177 -66 250 -73z m-2215 -13 c45 -13 146 -105
146 -132 0 -14 -34 -16 -300 -16 -266 0 -300 2 -300 16 0 24 101 119 140 131
48 15 263 16 314 1z m164 -510 c-3 -197 -4 -204 -30 -254 -40 -76 -70 -107
-140 -145 -58 -31 -70 -34 -148 -33 -72 0 -93 4 -136 26 -75 39 -107 70 -145
140 l-34 63 -3 203 -4 202 322 0 322 0 -4 -202z m962 -490 c0 -57 0 -58 -40
-78 l-40 -20 -40 20 c-40 20 -40 21 -40 78 l0 57 80 0 80 0 0 -57z m-320 -44
c0 -94 1 -97 30 -124 l31 -29 -32 -285 -32 -286 38 -57 c42 -64 41 -64 -80 6
-120 69 -178 85 -278 78 l-78 -5 3 281 c3 277 4 283 28 332 43 86 125 154 215
176 17 4 58 7 93 8 l62 1 0 -96z m709 56 c69 -37 99 -68 139 -144 l27 -51 3
-296 3 -295 -60 7 c-34 4 -105 16 -159 27 -53 12 -117 25 -142 29 l-45 8 -28
253 -28 253 31 29 c29 27 30 30 30 125 l0 98 84 -5 c70 -5 94 -11 145 -38z
m-1909 -216 c0 -94 0 -96 31 -125 l31 -29 -7 -80 c-6 -68 -10 -80 -24 -76 -9
3 -70 22 -136 41 -303 91 -285 85 -285 108 0 36 45 121 84 160 66 66 138 95
239 96 l67 1 0 -96z m320 41 c0 -54 -1 -55 -40 -75 l-40 -20 -40 20 c-39 20
-40 21 -40 75 l0 55 80 0 80 0 0 -55z m330 39 c5 -5 5 -25 0 -49 -5 -22 -10
-169 -10 -326 l0 -286 -31 -7 c-17 -3 -57 -6 -89 -6 l-57 0 -6 48 c-4 26 -14
124 -23 219 l-17 172 32 30 c31 29 31 30 31 126 l0 98 80 -5 c45 -3 85 -9 90
-14z m1649 -94 l36 -105 73 -38 72 -38 0 -168 0 -169 -87 -15 c-49 -9 -102
-18 -120 -20 l-32 -3 -4 305 c-2 168 -8 319 -12 334 -7 26 -5 28 15 25 19 -2
29 -20 59 -108z m373 59 c-14 -45 -22 -54 -64 -75 l-48 -24 -48 24 c-42 21
-50 30 -64 75 l-16 51 128 0 128 0 -16 -51z m346 17 c58 -29 114 -81 138 -127
8 -17 14 -32 12 -34 -2 -1 -43 -15 -93 -31 -120 -39 -127 -51 -99 -167 l21
-85 -166 -47 c-91 -26 -172 -50 -178 -52 -10 -4 -13 28 -13 140 l0 146 73 38
72 38 32 90 c17 50 34 99 37 109 4 17 12 18 59 13 30 -3 77 -17 105 -31z
m-1529 -333 c12 -115 24 -221 27 -238 4 -27 0 -32 -46 -57 -27 -16 -52 -28
-55 -28 -3 0 -15 17 -29 38 l-24 37 26 228 25 227 27 0 27 0 22 -207z m-1208
-123 c9 -91 16 -166 15 -167 -1 -1 -25 5 -54 13 -60 18 -58 6 -41 183 13 142
14 143 41 139 22 -3 24 -10 39 -168z m141 -1608 c19 -19 31 -43 35 -70 5 -36
-1 -52 -65 -164 -88 -154 -107 -173 -173 -173 -42 0 -53 5 -81 33 -28 28 -33
39 -33 80 1 40 11 65 71 167 81 139 116 170 178 162 25 -4 50 -16 68 -35z
m353 -106 c42 -18 67 -56 69 -105 0 -31 -19 -72 -107 -227 -60 -104 -119 -199
-133 -211 -54 -49 -148 -33 -181 30 -28 55 -13 99 94 282 131 223 123 213 158
230 38 18 57 19 100 1z m311 -272 c19 -9 42 -30 51 -47 26 -51 12 -100 -64
-232 -73 -125 -105 -155 -163 -155 -39 0 -90 37 -107 77 -20 49 -12 73 73 219
88 151 127 177 210 138z m336 -291 c43 -43 47 -90 13 -157 -42 -83 -76 -111
-135 -111 -42 0 -54 5 -80 30 -42 43 -49 91 -20 150 27 56 66 104 94 116 37
16 97 3 128 -28z"/>
</g>
</svg>
