<?xml version="1.0" standalone="no"?>
<!DOCTYPE svg PUBLIC "-//W3C//DTD SVG 20010904//EN"
 "http://www.w3.org/TR/2001/REC-SVG-20010904/DTD/svg10.dtd">
<svg version="1.0" xmlns="http://www.w3.org/2000/svg"
 width="512.000000pt" height="512.000000pt" viewBox="0 0 512.000000 512.000000"
 preserveAspectRatio="xMidYMid meet">

<g transform="translate(0.000000,512.000000) scale(0.100000,-0.100000)"
fill="#000000" stroke="none">
<path d="M190 5111 c-69 -21 -130 -73 -166 -141 -18 -34 -19 -99 -19 -1855 l0
-1820 21 -40 c30 -56 71 -94 129 -121 l50 -24 777 0 776 0 -100 -300 -100
-300 -454 0 -455 0 -24 -25 c-25 -24 -25 -25 -25 -228 0 -190 1 -205 20 -225
11 -12 31 -24 43 -27 12 -3 789 -4 1727 -2 1602 3 1710 4 1780 21 153 37 298
98 420 177 84 55 274 245 329 329 83 128 145 277 178 430 17 81 18 186 18
2030 0 1878 -1 1946 -19 1980 -26 49 -74 98 -121 123 l-40 22 -2360 2 c-1298
1 -2371 -2 -2385 -6z m4732 -188 c16 -17 23 -38 26 -83 l4 -60 -2391 0 -2391
0 0 48 c0 56 17 92 50 109 20 10 498 12 2352 10 l2327 -2 23 -22z m28 -1638
l0 -1325 -52 0 c-51 0 -52 1 -137 83 -225 218 -481 330 -791 344 -330 15 -663
-119 -900 -361 l-64 -66 -1418 0 -1418 0 0 1325 0 1325 2390 0 2390 0 0 -1325z
m-820 -1090 c624 -131 978 -789 743 -1384 -93 -236 -308 -458 -541 -555 -213
-90 -455 -106 -682 -45 -98 26 -259 105 -340 167 -385 293 -514 813 -310 1249
149 319 453 539 802 583 88 10 239 4 328 -15z m-1274 -472 c-57 -116 -107
-287 -118 -408 l-3 -30 -1257 0 -1257 0 -23 23 c-22 22 -23 28 -26 252 l-3
230 1361 0 1360 0 -34 -67z m-122 -629 c3 -9 6 -30 6 -48 0 -98 89 -353 163
-468 l37 -58 -595 0 c-327 0 -595 3 -595 7 0 5 43 137 96 295 l96 288 393 0
c349 0 394 -2 399 -16z m414 -802 c31 -27 78 -63 104 -81 27 -18 48 -34 48
-36 0 -3 -569 -5 -1265 -5 l-1265 0 0 85 0 85 1161 0 1161 0 56 -48z"/>
<path d="M940 4055 l0 -385 85 0 85 0 0 385 0 385 -85 0 -85 0 0 -385z"/>
<path d="M2470 4433 c-8 -3 -25 -15 -37 -26 l-23 -20 0 -467 c0 -411 2 -468
16 -488 24 -35 59 -45 97 -28 18 8 175 157 350 333 300 301 317 321 317 355 0
44 -28 80 -109 142 -112 86 -258 155 -385 180 -86 17 -205 27 -226 19z m255
-205 c38 -11 88 -29 110 -40 48 -24 145 -89 145 -97 0 -4 -90 -96 -200 -206
l-200 -200 0 288 0 288 38 -6 c20 -4 68 -16 107 -27z"/>
<path d="M3930 4355 l0 -85 380 0 380 0 0 85 0 85 -380 0 -380 0 0 -85z"/>
<path d="M680 3925 l0 -255 85 0 85 0 0 255 0 255 -85 0 -85 0 0 -255z"/>
<path d="M3930 4095 l0 -85 380 0 380 0 0 85 0 85 -380 0 -380 0 0 -85z"/>
<path d="M2060 4035 c-427 -78 -745 -421 -789 -850 -10 -100 0 -242 24 -334
88 -342 382 -622 730 -696 125 -27 305 -23 429 9 160 41 311 123 415 224 44
42 51 54 51 87 0 38 -9 49 -305 345 l-304 305 -3 438 -3 439 -28 24 c-33 28
-95 31 -217 9z"/>
<path d="M430 3840 l0 -170 85 0 85 0 0 170 0 170 -85 0 -85 0 0 -170z"/>
<path d="M3930 3840 l0 -90 380 0 380 0 0 90 0 90 -380 0 -380 0 0 -90z"/>
<path d="M3204 3845 c-39 -17 -650 -632 -663 -667 -7 -17 -7 -37 -2 -50 5 -13
157 -170 338 -350 337 -336 346 -343 394 -317 59 31 180 203 232 329 88 213
94 463 17 684 -54 156 -199 362 -266 378 -12 3 -34 0 -50 -7z m111 -335 c64
-126 80 -198 80 -355 0 -103 -5 -157 -18 -205 -21 -74 -86 -211 -122 -255
l-25 -30 -242 242 -243 243 244 244 245 245 24 -32 c13 -18 39 -61 57 -97z"/>
<path d="M4533 3118 l-182 -182 -70 67 c-105 102 -96 105 -318 -115 l-183
-183 60 -60 60 -60 140 140 140 140 57 -57 c64 -61 90 -78 124 -78 17 0 88 65
251 227 l228 227 -57 58 c-32 32 -60 58 -63 58 -3 0 -87 -82 -187 -182z"/>
<path d="M430 2385 l0 -85 125 0 125 0 0 85 0 85 -125 0 -125 0 0 -85z"/>
<path d="M430 2135 l0 -85 125 0 125 0 0 85 0 85 -125 0 -125 0 0 -85z"/>
<path d="M3840 1966 l0 -84 -66 -12 c-115 -22 -212 -104 -254 -216 -17 -46
-20 -78 -20 -200 0 -155 7 -187 56 -251 13 -18 46 -45 72 -60 47 -28 48 -28
274 -33 287 -6 272 3 276 -168 3 -106 1 -121 -20 -162 -13 -25 -38 -55 -57
-67 -31 -21 -45 -23 -176 -23 -131 0 -145 2 -176 23 -48 32 -79 98 -79 169 l0
58 -86 0 -86 0 4 -87 c2 -68 9 -100 29 -143 48 -103 150 -179 262 -195 l47 -7
0 -84 0 -84 85 0 85 0 0 84 0 84 48 7 c108 15 206 86 259 187 26 50 28 62 31
208 2 93 0 169 -7 191 -16 55 -65 115 -118 146 -48 28 -48 28 -275 33 -287 6
-272 -3 -276 168 -3 106 -1 121 20 161 40 77 60 86 211 89 78 2 147 -1 169 -7
46 -14 85 -60 100 -117 l12 -44 83 0 83 0 0 35 c0 47 -34 135 -71 182 -48 60
-127 109 -203 123 l-66 12 0 84 0 84 -85 0 -85 0 0 -84z"/>
<path d="M2470 1535 l0 -85 90 0 90 0 0 85 0 85 -90 0 -90 0 0 -85z"/>
</g>
</svg>
