<?xml version="1.0" standalone="no"?>
<!DOCTYPE svg PUBLIC "-//W3C//DTD SVG 20010904//EN"
 "http://www.w3.org/TR/2001/REC-SVG-20010904/DTD/svg10.dtd">
<svg version="1.0" xmlns="http://www.w3.org/2000/svg"
 width="920.000000pt" height="595.000000pt" viewBox="0 0 920.000000 595.000000"
 preserveAspectRatio="xMidYMid meet">

<g transform="translate(0.000000,595.000000) scale(0.100000,-0.100000)"
fill="#000000" stroke="none">
<path d="M4955 5944 c-134 -13 -250 -47 -370 -107 -118 -59 -190 -111 -286
-208 -82 -83 -87 -86 -110 -73 -99 55 -280 103 -420 111 -353 20 -696 -142
-911 -431 -122 -164 -208 -408 -208 -592 l0 -50 -57 -18 c-81 -26 -228 -104
-300 -159 -409 -314 -535 -852 -309 -1312 116 -235 322 -425 562 -516 l81 -31
7 -104 c12 -185 44 -305 124 -457 141 -271 392 -462 702 -537 110 -27 320 -32
428 -11 135 26 283 87 393 161 l56 38 67 -54 c365 -292 862 -313 1251 -51 121
82 260 234 331 365 27 49 31 53 59 48 138 -23 230 -28 329 -17 133 15 228 41
345 96 227 108 394 274 502 500 59 124 85 217 100 358 13 125 2 266 -32 388
-25 94 -104 256 -162 336 l-46 61 30 74 c56 136 73 227 74 393 0 174 -15 254
-75 402 -148 363 -491 616 -881 651 -57 5 -118 7 -135 5 -28 -4 -32 -2 -38 24
-4 15 -25 65 -45 109 -168 359 -521 593 -915 608 -56 2 -119 2 -141 0z m210
-254 c289 -42 544 -250 644 -525 17 -47 31 -92 31 -100 0 -26 31 -80 58 -100
25 -18 40 -20 178 -17 214 5 340 -27 490 -123 69 -44 172 -141 220 -206 180
-245 201 -596 52 -858 -44 -78 -44 -136 0 -188 118 -138 167 -223 208 -360 22
-74 27 -108 27 -213 1 -155 -16 -226 -86 -370 -45 -94 -61 -116 -151 -205 -86
-86 -115 -108 -196 -148 -133 -66 -227 -89 -370 -89 -91 0 -132 4 -195 23 -44
13 -103 23 -132 24 -66 0 -96 -27 -137 -122 -139 -322 -444 -518 -781 -500
-211 12 -369 84 -541 247 -116 111 -157 111 -288 1 -134 -113 -306 -173 -501
-173 -224 0 -397 69 -559 221 -182 173 -276 427 -246 665 9 72 8 91 -6 125
-20 51 -43 65 -143 91 -162 41 -287 115 -398 234 -151 163 -218 334 -217 556
1 106 5 139 28 215 69 227 211 396 421 500 50 24 128 53 173 64 143 34 168 66
156 204 -25 311 162 630 453 772 252 122 526 109 778 -39 122 -71 177 -61 246
42 45 66 144 167 209 212 176 120 374 168 575 140z"/>
<path d="M5878 1491 c-126 -41 -211 -115 -266 -230 -101 -209 -18 -462 186
-568 83 -44 140 -56 229 -51 176 12 320 115 385 278 17 44 21 76 21 155 0 79
-4 111 -21 155 -45 113 -141 209 -249 251 -81 31 -208 36 -285 10z m227 -176
c17 -6 45 -25 63 -40 166 -140 99 -411 -112 -455 -170 -35 -334 114 -311 284
23 173 199 277 360 211z"/>
<path d="M6354 600 c-62 -24 -134 -93 -166 -158 -19 -38 -23 -63 -23 -132 0
-73 4 -92 27 -135 59 -111 154 -169 278 -169 96 0 162 28 223 93 144 154 99
400 -91 493 -66 32 -178 35 -248 8z m197 -136 c34 -17 77 -68 85 -100 11 -43
-2 -120 -25 -153 -73 -102 -241 -90 -295 22 -72 152 85 306 235 231z"/>
</g>
</svg>
